<svg xmlns="http://www.w3.org/2000/svg" width="176" height="190" viewBox="0 0 176 190">
  <g id="그룹_1093" data-name="그룹 1093" transform="translate(-1278 -449.5)">
    <g id="그룹_1090" data-name="그룹 1090">
      <g id="그룹_1089" data-name="그룹 1089">
        <path id="패스_96" data-name="패스 96" d="M1366,453.5a78.81,78.81,0,0,1,43.977,13.335,3,3,0,0,0,4.143-.8,15,15,0,1,1,20.595,21,3,3,0,0,0-.866,4.147C1444.415,507.383,1450,527.2,1450,548.5c0,26.377-8.5,48.607-24.576,64.288C1410.406,627.434,1389.3,635.5,1366,635.5s-44.406-8.066-59.424-22.712C1290.5,597.107,1282,574.877,1282,548.5c0-21.1,5.49-40.778,15.876-56.891a3,3,0,0,0-.994-4.207,14.988,14.988,0,1,1,20.247-20.97,3,3,0,0,0,1.929,1.322,2.944,2.944,0,0,0,.6.06,3.006,3.006,0,0,0,1.693-.523A78.78,78.78,0,0,1,1366,453.5m0-3a81.579,81.579,0,0,0-46.344,14.314,17.989,17.989,0,1,0-24.3,25.17C1285.065,505.947,1279,525.952,1279,548.5c0,57.161,38.951,90,87,90s87-32.839,87-90c0-22.754-6.177-42.917-16.638-58.951a18,18,0,1,0-24.717-25.208A81.571,81.571,0,0,0,1366,450.5Z" fill="#c6c6c6" stroke="#c6c6c6" stroke-miterlimit="10" stroke-width="2"/>
      </g>
    </g>
    <g id="타원_6" data-name="타원 6">
      <circle id="타원_9" data-name="타원 9" cx="2.522" cy="2.522" r="2.522" transform="translate(1407.374 525.117)" fill="#da5e5e"/>
    </g>
    <g id="타원_5" data-name="타원 5">
      <circle id="타원_10" data-name="타원 10" cx="2.522" cy="2.522" r="2.522" transform="translate(1400.304 523.094)" fill="#da5e5e"/>
    </g>
    <g id="타원_5-2" data-name="타원 5">
      <g id="타원_11" data-name="타원 11" transform="translate(1392.784 503.146)" fill="#fff" stroke="#000" stroke-linecap="round" stroke-linejoin="round" stroke-width="3">
        <ellipse cx="3.232" cy="2.532" rx="3.232" ry="2.532" stroke="none"/>
        <ellipse cx="3.232" cy="2.532" rx="1.732" ry="1.032" fill="none"/>
      </g>
    </g>
    <g id="타원_5-3" data-name="타원 5">
      <g id="타원_12" data-name="타원 12" transform="translate(1333.67 503.146)" fill="#fff" stroke="#000" stroke-linecap="round" stroke-linejoin="round" stroke-width="3">
        <ellipse cx="3.232" cy="2.532" rx="3.232" ry="2.532" stroke="none"/>
        <ellipse cx="3.232" cy="2.532" rx="1.732" ry="1.032" fill="none"/>
      </g>
    </g>
    <g id="타원_5-4" data-name="타원 5">
      <ellipse id="타원_13" data-name="타원 13" cx="4.499" cy="3.525" rx="4.499" ry="3.525" transform="translate(1362.001 509.733)"/>
    </g>
    <g id="타원_4" data-name="타원 4">
      <circle id="타원_14" data-name="타원 14" cx="2.522" cy="2.522" r="2.522" transform="translate(1401.328 529.348)" fill="#da5e5e"/>
    </g>
    <g id="타원_6-2" data-name="타원 6">
      <circle id="타원_15" data-name="타원 15" cx="2.522" cy="2.522" r="2.522" transform="translate(1331.119 527.94)" fill="#da5e5e"/>
    </g>
    <g id="타원_5-5" data-name="타원 5">
      <circle id="타원_16" data-name="타원 16" cx="2.522" cy="2.522" r="2.522" transform="translate(1327.551 521.51)" fill="#da5e5e"/>
    </g>
    <g id="타원_4-2" data-name="타원 4">
      <circle id="타원_17" data-name="타원 17" cx="2.522" cy="2.522" r="2.522" transform="translate(1323.852 526.656)" fill="#da5e5e"/>
    </g>
    <g id="타원_7" data-name="타원 7">
      <g id="타원_18" data-name="타원 18" transform="translate(1390.074 493.846) rotate(-30)" fill="#fff" stroke="#000" stroke-linecap="round" stroke-linejoin="round" stroke-width="3">
        <ellipse cx="6.14" cy="2.329" rx="6.14" ry="2.329" stroke="none"/>
        <ellipse cx="6.14" cy="2.329" rx="4.64" ry="0.829" fill="none"/>
      </g>
    </g>
    <g id="타원_8" data-name="타원 8">
      <g id="타원_19" data-name="타원 19" transform="translate(1329.89 491.74) rotate(-60)" fill="#fff" stroke="#000" stroke-linecap="round" stroke-linejoin="round" stroke-width="3">
        <ellipse cx="2.329" cy="6.14" rx="2.329" ry="6.14" stroke="none"/>
        <ellipse cx="2.329" cy="6.14" rx="0.829" ry="4.64" fill="none"/>
      </g>
    </g>
    <g id="그룹_1091" data-name="그룹 1091">
      <path id="패스_97" data-name="패스 97" d="M1348.5,574.5a1.5,1.5,0,0,1,0-3c9.1,0,16.5-5.832,16.5-13s-7.4-13-16.5-13a1.5,1.5,0,0,1,0-3c10.752,0,19.5,7.178,19.5,16S1359.252,574.5,1348.5,574.5Z" fill="#c6c6c6" stroke="#c6c6c6" stroke-miterlimit="10" stroke-width="2"/>
    </g>
    <g id="그룹_1092" data-name="그룹 1092">
      <path id="패스_98" data-name="패스 98" d="M1384.5,574.5c-10.752,0-19.5-7.178-19.5-16s8.748-16,19.5-16a1.5,1.5,0,0,1,0,3c-9.1,0-16.5,5.832-16.5,13s7.4,13,16.5,13a1.5,1.5,0,0,1,0,3Z" fill="#c6c6c6" stroke="#c6c6c6" stroke-miterlimit="10" stroke-width="2"/>
    </g>
  </g>
</svg>
